<?xml version="1.0" encoding="iso-8859-1"?>
<!-- Generator: Adobe Illustrator 19.0.0, SVG Export Plug-In . SVG Version: 6.00 Build 0)  -->
<svg version="1.1" id="Capa_1" xmlns="http://www.w3.org/2000/svg" xmlns:xlink="http://www.w3.org/1999/xlink" x="0px" y="0px"
	 viewBox="0 0 512 512" style="enable-background:new 0 0 512 512; fill: #00FFEB;" xml:space="preserve">
<g>
	<g>
		<path d="M261.959,180.383c-24.553-24.553-57.199-38.075-91.923-38.075c-34.725,0-67.371,13.522-91.924,38.077
			c-20.172,20.172-32.908,45.731-36.83,73.916c-3.793,27.256,1.271,55.542,14.26,79.646c2.619,4.861,8.685,6.679,13.547,4.06
			c4.862-2.62,6.68-8.685,4.06-13.547C50.3,282.056,58.156,228.626,92.254,194.527c20.776-20.776,48.4-32.218,77.782-32.218
			s57.005,11.442,77.781,32.218c42.889,42.889,42.889,112.675,0,155.564c-34.098,34.099-87.53,41.954-129.935,19.104
			c-4.862-2.621-10.927-0.803-13.547,4.06c-2.62,4.862-0.802,10.927,4.06,13.547c18.884,10.175,40.334,15.487,61.847,15.487
			c5.946,0,11.898-0.406,17.8-1.227c28.184-3.922,53.744-16.657,73.917-36.83C312.646,313.544,312.646,231.07,261.959,180.383z"/>
	</g>
</g>
<g>
	<g>
		<path d="M92.258,350.079c-3.904-3.905-10.237-3.905-14.142,0l-0.078,0.078c-3.905,3.905-3.905,10.237,0,14.143
			c1.953,1.953,4.512,2.929,7.071,2.929c2.559,0,5.119-0.976,7.071-2.929l0.078-0.078C96.163,360.317,96.163,353.985,92.258,350.079
			z"/>
	</g>
</g>
<g>
	<g>
		<path d="M213.914,272.309c9.826-8.076,16.104-20.318,16.104-34c0-21.541-15.564-39.504-36.035-43.264v-9.317
			c0-5.523-4.477-10-10-10c-5.523,0-10,4.477-10,10v8.582h-7v-8.582c0-5.523-4.477-10-10-10c-5.523,0-10,4.477-10,10v8.582h-6.965
			h-12.035c-5.523,0-10,4.477-10,10s4.477,10,10,10h2.035v115.998h-2.035c-5.523,0-10,4.477-10,10s4.477,10,10,10h12.035h6.965
			v8.582c0,5.523,4.477,10,10,10c5.523,0,10-4.477,10-10v-8.582h7v8.582c0,5.523,4.477,10,10,10c5.523,0,10-4.477,10-10v-9.317
			c20.471-3.76,36.035-21.723,36.035-43.264C230.018,292.627,223.739,280.385,213.914,272.309z M186.018,330.308h-36v-48h36
			c13.233,0,24,10.766,24,24S199.252,330.308,186.018,330.308z M186.018,262.308h-36v-48h36c13.233,0,24,10.766,24,24
			S199.252,262.308,186.018,262.308z"/>
	</g>
</g>
<g>
	<g>
		<path d="M512,246v-68c0-11.028-8.972-20-20-20h-34V90c0-11.028-8.972-20-20-20H138c-11.028,0-20,8.972-20,20v20.146
			C49.619,132.166,0,196.393,0,272c0,93.738,76.262,170,170,170c0.026,0,0.051-0.001,0.077-0.001H492c11.028,0,20-8.972,20-20v-68
			c0-11.028-8.972-20-20-20h-34v-68h34V266C503.028,266,512,257.028,512,246z M199.984,90h36.098
			c0.602,4.947,4.809,8.781,9.918,8.781s9.316-3.834,9.918-8.781h36.098v26.296c0,5.523,4.477,10,10,10s10-4.477,10-10V90h36.017
			v26.296c0,5.523,4.477,10,10,10s10-4.477,10-10V90H404v26.296c0,5.523,4.477,10,10,10s10-4.477,10-10V90h14v68H296.001
			c-24.75-27.329-58.241-46.601-96.017-53.351V90z M138,90h41.983v12.302C176.679,102.109,173.352,102,170,102
			c-10.937,0-21.632,1.051-32,3.034V90z M170,421.999c-0.005,0-0.01,0.001-0.015,0.001C87.281,421.992,20,354.706,20,272
			c0-82.71,67.29-150,150-150s150,67.29,150,150c0,82.685-67.248,149.957-149.923,149.999H170z M468,389c5.523,0,10-4.477,10-10v-25
			h14v68H249.93c29.018-15.525,53.03-39.223,68.944-68H330h16.002v25c0,5.523,4.477,10,10,10s10-4.477,10-10v-25h36.031v25
			c0,5.523,4.477,10,10,10s10-4.477,10-10v-25H438h20v25C458,384.523,462.477,389,468,389z M339.883,265.999h8.151v25
			c0,5.523,4.477,10,10,10s10-4.477,10-10v-25H404v25c0,5.523,4.477,10,10,10s10-4.477,10-10v-25h14V334H328.294
			C335.847,314.781,340,293.867,340,272C340,269.99,339.952,267.992,339.883,265.999z M438,246h-99.987
			c-3.828-24.838-13.059-47.914-26.44-68h34.428v25c0,5.523,4.477,10,10,10s10-4.477,10-10v-25h35.967v25c0,5.523,4.477,10,10,10
			c0.011,0,0.021-0.002,0.032-0.002c0.011,0,0.021,0.002,0.032,0.002c5.523,0,10-4.477,10-10v-25H438h20v25c0,5.523,4.477,10,10,10
			s10-4.477,10-10v-25h14v68H438z"/>
	</g>
</g>
<g>
</g>
<g>
</g>
<g>
</g>
<g>
</g>
<g>
</g>
<g>
</g>
<g>
</g>
<g>
</g>
<g>
</g>
<g>
</g>
<g>
</g>
<g>
</g>
<g>
</g>
<g>
</g>
<g>
</g>
</svg>
