<?xml version="1.0" encoding="iso-8859-1"?>
<!-- Generator: Adobe Illustrator 19.0.0, SVG Export Plug-In . SVG Version: 6.00 Build 0)  -->
<svg version="1.1" id="Capa_1" xmlns="http://www.w3.org/2000/svg" xmlns:xlink="http://www.w3.org/1999/xlink" x="0px" y="0px"
	 viewBox="0 0 511.999 511.999" style="enable-background:new 0 0 511.999 511.999; fill: #00FFEB;" xml:space="preserve">
<g>
	<g>
		<path d="M364.507,344.995H162.906c-5.523,0-10,4.477-10,10c0,5.523,4.477,10,10,10h201.601c5.523,0,10-4.477,10-10
			C374.507,349.472,370.03,344.995,364.507,344.995z"/>
	</g>
</g>
<g>
	<g>
		<path d="M411.008,347.925c-1.86-1.86-4.43-2.93-7.07-2.93c-2.63,0-5.21,1.07-7.07,2.93c-1.86,1.86-2.93,4.44-2.93,7.07
			s1.07,5.21,2.93,7.07c1.87,1.86,4.44,2.93,7.07,2.93c2.63,0,5.21-1.07,7.07-2.93c1.87-1.86,2.93-4.44,2.93-7.07
			S412.878,349.786,411.008,347.925z"/>
	</g>
</g>
<g>
	<g>
		<path d="M205.744,417.029h-42.741c-5.523,0-10,4.477-10,10s4.477,10,10,10h42.741c5.523,0,10-4.477,10-10
			S211.267,417.029,205.744,417.029z"/>
	</g>
</g>
<g>
	<g>
		<path d="M304.842,417.029h-53.077c-5.523,0-10,4.477-10,10s4.477,10,10,10h53.077c5.523,0,10-4.477,10-10
			S310.365,417.029,304.842,417.029z"/>
	</g>
</g>
<g>
	<g>
		<path d="M403.941,417.029h-53.077c-5.523,0-10,4.477-10,10s4.477,10,10,10h53.077c5.523,0,10-4.477,10-10
			S409.464,417.029,403.941,417.029z"/>
	</g>
</g>
<g>
	<g>
		<path d="M125.767,376.996c0-17.237-13.702-31.328-30.787-31.97v-3.36c0-5.523-4.477-10-10-10s-10,4.477-10,10v3.329H53.001
			c-5.523,0-10,4.477-10,10c0,5.523,4.477,10,10,10h1v68.001h-1c-5.523,0-10,4.477-10,10s4.477,10,10,10H74.98v3.186
			c0,5.523,4.477,10,10,10c5.523,0,10-4.477,10-10v-3.217c17.084-0.642,30.787-14.731,30.787-31.97c0-8.517-3.351-16.26-8.795-22
			C122.416,393.256,125.767,385.513,125.767,376.996z M93.767,432.997H74.001v-24h19.765c6.617,0,12,5.383,12,12
			S100.383,432.997,93.767,432.997z M93.767,388.996H74.001v-24h19.765c6.616,0,12,5.384,12,12
			C105.767,383.613,100.384,388.996,93.767,388.996z"/>
	</g>
</g>
<g>
	<g>
		<path d="M507.513,246.001L378.048,21.762c-9.246-16.016-29.8-21.521-45.815-12.275L35.177,180.992H33.54
			c-18.494,0-33.54,15.046-33.54,33.54V473.46C0,491.953,15.045,507,33.54,507H424.47c18.493,0,33.54-15.045,33.54-33.54V313.31
			l37.228-21.493C511.252,282.57,516.759,262.017,507.513,246.001z M438.009,473.46c0,7.465-6.073,13.538-13.539,13.538H33.54
			c-7.465,0-13.539-6.073-13.539-13.539V308.964h418.008V473.46z M438.009,288.963H20v-44.001h418.008V288.963z M438.009,224.962H20
			v-10.43c0-7.465,6.073-13.539,13.539-13.539h4.316h386.614c7.465,0,13.539,6.073,13.539,13.539V224.962z M485.236,274.495
			l-27.227,15.72v-75.683c0-18.493-15.045-33.54-33.54-33.54H292.366c1.689-0.004,3.4-0.435,4.968-1.34l76.211-44.001
			c4.783-2.761,6.422-8.877,3.66-13.66l-28.001-48.499c-2.761-4.783-8.878-6.422-13.66-3.66l-76.211,44.001
			c-4.783,2.761-6.422,8.877-3.66,13.66l28.001,48.499c1.848,3.201,5.199,4.992,8.647,5H75.176L342.234,26.807
			c6.466-3.732,14.761-1.509,18.494,4.955l129.465,224.238C493.925,262.466,491.702,270.763,485.236,274.495z M277.993,126.154
			l58.891-34.001l18,31.178l-58.891,34.001L277.993,126.154z"/>
	</g>
</g>
<g>
</g>
<g>
</g>
<g>
</g>
<g>
</g>
<g>
</g>
<g>
</g>
<g>
</g>
<g>
</g>
<g>
</g>
<g>
</g>
<g>
</g>
<g>
</g>
<g>
</g>
<g>
</g>
<g>
</g>
</svg>
