<?xml version="1.0" encoding="iso-8859-1"?>
<!-- Generator: Adobe Illustrator 19.0.0, SVG Export Plug-In . SVG Version: 6.00 Build 0)  -->
<svg version="1.1" id="Layer_1" xmlns="http://www.w3.org/2000/svg" xmlns:xlink="http://www.w3.org/1999/xlink" x="0px" y="0px"
	 viewBox="0 0 512.003 512.003" style="enable-background:new 0 0 512.003 512.003; fill: #00FFEB;" xml:space="preserve">
<g>
	<g>
		<path d="M333.48,0h-0.18c-5.522,0-10,4.477-10,10s4.478,10,10,10h0.18c5.523,0,10-4.477,10-10S339.002,0,333.48,0z"/>
	</g>
</g>
<g>
	<g>
		<path d="M355.178,65h-252c-5.522,0-10,4.477-10,10s4.478,10,10,10h252c5.522,0,10-4.477,10-10S360.7,65,355.178,65z"/>
	</g>
</g>
<g>
	<g>
		<path d="M355.178,128H103.115c-5.522,0-10,4.477-10,10s4.478,10,10,10h252.063c5.522,0,10-4.477,10-10S360.7,128,355.178,128z"/>
	</g>
</g>
<g>
	<g>
		<path d="M163.492,191h-25.75c-5.522,0-10,4.477-10,10s4.478,10,10,10h25.75c5.523,0,10-4.477,10-10S169.014,191,163.492,191z"/>
	</g>
</g>
<g>
	<g>
		<path d="M103.254,191h-0.139c-5.522,0-10,4.477-10,10s4.478,10,10,10h0.139c5.522,0,10-4.477,10-10S108.776,191,103.254,191z"/>
	</g>
</g>
<g>
	<g>
		<path d="M137.742,257.501h-34.627c-5.522,0-10,4.477-10,10s4.478,10,10,10h34.627c5.523,0,10-4.477,10-10
			S143.264,257.501,137.742,257.501z"/>
	</g>
</g>
<g>
	<g>
		<path d="M137.742,320.5h-34.488c-5.522,0-10,4.477-10,10s4.478,10,10,10h34.488c5.523,0,10-4.477,10-10
			S143.264,320.5,137.742,320.5z"/>
	</g>
</g>
<g>
	<g>
		<path d="M282.801,417.531c-5.522,0-10,4.477-10,10v0.108c0,5.523,4.478,10,10,10c5.522,0,10-4.477,10-10v-0.108
			C292.801,422.008,288.323,417.531,282.801,417.531z"/>
	</g>
</g>
<g>
	<g>
		<path d="M482.073,494.931l-51.071-51.071V10.002c0-5.523-4.478-10-10-10H376.45c-5.522,0-10,4.477-10,10s4.478,10,10,10h34.552
			V423.86l-31.046-31.046c1.719-2.001,3.396-4.04,4.988-6.147c16.886-22.345,25.812-48.997,25.812-77.076
			c0-70.553-57.399-127.952-127.952-127.952c-70.552,0-127.95,57.399-127.95,127.952c0,28.079,8.925,54.73,25.811,77.075
			c16.329,21.609,39.54,37.77,65.354,45.507c5.289,1.585,10.864-1.417,12.45-6.708c1.586-5.29-1.418-10.864-6.708-12.45
			c-45.282-13.571-76.907-56.1-76.907-103.423c0-59.525,48.427-107.952,107.95-107.952c59.525,0,107.952,48.427,107.952,107.952
			c0,47.324-31.626,89.854-76.909,103.424c-5.291,1.585-8.294,7.159-6.709,12.45c1.299,4.333,5.272,7.132,9.575,7.132
			c0.95,0,1.917-0.137,2.874-0.423c16.923-5.071,32.71-13.781,46.189-25.254l45.226,45.225v39.857h-364v-472h241.967
			c5.522,0,10-4.477,10-10s-4.478-10-10-10H37.002c-5.522,0-10,4.477-10,10v492c0,5.523,4.478,10,10,10h384c5.522,0,10-4.477,10-10
			v-29.857l36.929,36.928c1.953,1.953,4.512,2.929,7.071,2.929s5.118-0.977,7.071-2.929
			C485.978,505.168,485.978,498.836,482.073,494.931z"/>
	</g>
</g>
<g>
</g>
<g>
</g>
<g>
</g>
<g>
</g>
<g>
</g>
<g>
</g>
<g>
</g>
<g>
</g>
<g>
</g>
<g>
</g>
<g>
</g>
<g>
</g>
<g>
</g>
<g>
</g>
<g>
</g>
</svg>
